<?xml version="1.0" encoding="utf-8"?>
<svg version="1.1" id="Capa_1" xmlns="http://www.w3.org/2000/svg" xmlns:xlink="http://www.w3.org/1999/xlink" x="0px" y="0px"
	 width="48.95px" height="48.95px" viewBox="0 0 48.95 48.95" style="enable-background:new 0 0 48.95 48.95;" xml:space="preserve">
<style type="text/css">
	.bar1 { fill: #FF6B6B; }
	.bar2 { fill: #4ECDC4; }
	.bar3 { fill: #45B7D1; }
	.bar4 { fill: #96CEB4; }
</style>
<g>
	<!-- First bar (shortest) -->
	<path class="bar1" d="M8.605,47.122c0,1.011-0.817,1.828-1.825,1.828H3.888c-1.009,0-1.825-0.817-1.825-1.828v-2.583
		c0-1.01,0.816-1.826,1.825-1.826H6.78c1.008,0,1.825,0.816,1.825,1.826V47.122z"/>
	<path class="bar1" d="M8.605,36.385c0,1.01-0.817,1.828-1.825,1.828H3.888c-1.009,0-1.825-0.818-1.825-1.828v-2.584
		c0-1.01,0.816-1.826,1.825-1.826H6.78c1.008,0,1.825,0.816,1.825,1.826V36.385z"/>
	<path class="bar1" d="M8.605,25.648c0,1.01-0.817,1.826-1.825,1.826H3.888c-1.009,0-1.825-0.816-1.825-1.826v-2.584
		c0-1.01,0.816-1.827,1.825-1.827H6.78c1.008,0,1.825,0.817,1.825,1.827V25.648z"/>
	<path class="bar1" d="M8.605,14.911c0,1.01-0.817,1.827-1.825,1.827H3.888c-1.009,0-1.825-0.817-1.825-1.827v-2.584
		c0-1.01,0.816-1.827,1.825-1.827H6.78c1.008,0,1.825,0.817,1.825,1.827V14.911z"/>
	
	<!-- Second bar -->
	<path class="bar2" d="M21.887,47.122c0,1.011-0.817,1.828-1.825,1.828h-2.891c-1.01,0-1.825-0.817-1.825-1.828v-2.583
		c0-1.01,0.815-1.826,1.825-1.826h2.891c1.008,0,1.825,0.816,1.825,1.826V47.122z"/>
	<path class="bar2" d="M21.887,36.385c0,1.01-0.817,1.828-1.825,1.828h-2.891c-1.01,0-1.825-0.818-1.825-1.828v-2.584
		c0-1.01,0.815-1.826,1.825-1.826h2.891c1.008,0,1.825,0.816,1.825,1.826V36.385z"/>
	
	<!-- Third bar -->
	<path class="bar3" d="M34.387,47.122c0,1.011-0.816,1.828-1.825,1.828h-2.891c-1.011,0-1.825-0.817-1.825-1.828v-2.583
		c0-1.01,0.814-1.826,1.825-1.826h2.891c1.009,0,1.825,0.816,1.825,1.826V47.122z"/>
	<path class="bar3" d="M34.387,36.385c0,1.01-0.816,1.828-1.825,1.828h-2.891c-1.011,0-1.825-0.818-1.825-1.828v-2.584
		c0-1.01,0.814-1.826,1.825-1.826h2.891c1.009,0,1.825,0.816,1.825,1.826V36.385z"/>
	<path class="bar3" d="M34.387,25.648c0,1.01-0.816,1.826-1.825,1.826h-2.891c-1.011,0-1.825-0.816-1.825-1.826v-2.584
		c0-1.01,0.814-1.827,1.825-1.827h2.891c1.009,0,1.825,0.817,1.825,1.827V25.648z"/>
	<path class="bar3" d="M34.387,14.911c0,1.01-0.816,1.827-1.825,1.827h-2.891c-1.011,0-1.825-0.817-1.825-1.827v-2.584
		c0-1.01,0.814-1.827,1.825-1.827h2.891c1.009,0,1.825,0.817,1.825,1.827V14.911z"/>
	
	<!-- Fourth bar (tallest) -->
	<path class="bar4" d="M46.887,4.411c0,1.01-0.816,1.827-1.825,1.827h-2.891c-1.011,0-1.825-0.817-1.825-1.827V1.827
		c0-1.01,0.814-1.827,1.825-1.827h2.891c1.009,0,1.825,0.817,1.825,1.827V4.411z"/>
	<path class="bar4" d="M46.887,47.122c0,1.011-0.816,1.828-1.825,1.828h-2.891c-1.011,0-1.825-0.817-1.825-1.828v-2.583
		c0-1.01,0.814-1.826,1.825-1.826h2.891c1.009,0,1.825,0.816,1.825,1.826V47.122z"/>
	<path class="bar4" d="M46.887,36.385c0,1.01-0.816,1.828-1.825,1.828h-2.891c-1.011,0-1.825-0.818-1.825-1.828v-2.584
		c0-1.01,0.814-1.826,1.825-1.826h2.891c1.009,0,1.825,0.816,1.825,1.826V36.385z"/>
	<path class="bar4" d="M46.887,25.648c0,1.01-0.816,1.826-1.825,1.826h-2.891c-1.011,0-1.825-0.816-1.825-1.826v-2.584
		c0-1.01,0.814-1.827,1.825-1.827h2.891c1.009,0,1.825,0.817,1.825,1.827V25.648z"/>
	<path class="bar4" d="M46.887,14.911c0,1.01-0.816,1.827-1.825,1.827h-2.891c-1.011,0-1.825-0.817-1.825-1.827v-2.584
		c0-1.01,0.814-1.827,1.825-1.827h2.891c1.009,0,1.825,0.817,1.825,1.827V14.911z"/>
</g>
</svg> 